<svg xmlns="http://www.w3.org/2000/svg" version="1.1" xmlns:xlink="http://www.w3.org/1999/xlink" xmlns:svgjs="http://svgjs.dev/svgjs" width="1500" height="1500" viewBox="0 0 1500 1500"><rect width="1500" height="1500" fill="#000000"></rect><g transform="matrix(0.6666666666666666,0,0,0.6666666666666666,249.39393939393938,438.5856950067477)"><svg viewBox="0 0 396 247" data-background-color="#ffffff" preserveAspectRatio="xMidYMid meet" height="935" width="1500" xmlns="http://www.w3.org/2000/svg" xmlns:xlink="http://www.w3.org/1999/xlink"><g id="tight-bounds" transform="matrix(1,0,0,1,0.2400000000000091,-0.09999999999999432)"><svg viewBox="0 0 395.52 247.2" height="247.2" width="395.52"><g><svg></svg></g><g><svg viewBox="0 0 395.52 247.2" height="247.2" width="395.52"><g transform="matrix(1,0,0,1,137.52067521865888,47.215199999999996)"><svg viewBox="0 0 120.47864956268221 152.7696" height="152.7696" width="120.47864956268221"><g><svg viewBox="0 0 120.47864956268221 152.7696" height="152.7696" width="120.47864956268221"><g><svg viewBox="0 0 120.47864956268221 152.7696" height="152.7696" width="120.47864956268221"><g><svg viewBox="0 0 120.47864956268221 152.7696" height="152.7696" width="120.47864956268221"><g id="textblocktransform"><svg viewBox="0 0 120.47864956268221 152.7696" height="152.7696" width="120.47864956268221" id="textblock"><g><svg viewBox="0 0 120.47864956268221 152.7696" height="152.7696" width="120.47864956268221"><g transform="matrix(1,0,0,1,0,0)"><svg width="120.47864956268221" viewBox="3.95 -34.3 27.05 34.3" height="152.7696" data-palette-color="#1d597d"><path d="M3.95 0L3.95-34.3 20.5-34.3Q24.8-34.3 27.43-32 30.05-29.7 30.05-25.9L30.05-25.9Q30.05-23 28.45-20.9 26.85-18.8 24.35-18L24.35-18 24.35-17.8Q27.4-17.1 29.2-14.9 31-12.7 31-9.1L31-9.1Q31-4.5 28.13-2.25 25.25 0 20.5 0L20.5 0 3.95 0ZM8.7-19.65L19.55-19.65Q22.1-19.65 23.65-21.13 25.2-22.6 25.2-24.95L25.2-24.95Q25.2-27.55 23.8-28.85 22.4-30.15 19.95-30.15L19.95-30.15 8.7-30.15 8.7-19.65ZM8.7-4.15L20.4-4.15Q26.15-4.15 26.15-9.7L26.15-9.7Q26.15-15.5 20.05-15.5L20.05-15.5 8.7-15.5 8.7-4.15Z" opacity="1" transform="matrix(1,0,0,1,0,0)" fill="#ffffff" class="wordmark-text-0" data-fill-palette-color="primary" id="text-0"></path></svg></g></svg></g></svg></g></svg></g></svg></g></svg></g></svg></g><g><path d="M0 123.6c0-68.262 55.338-123.6 123.6-123.6 30.402 0 58.24 10.976 79.768 29.183l-11.147 0c-19.26-14.022-42.974-22.294-68.621-22.295-64.458 0-116.712 52.254-116.712 116.712 0 64.458 52.254 116.712 116.712 116.712 25.647 0 49.361-8.272 68.621-22.295l11.147 0c-21.528 18.206-49.366 29.183-79.768 29.183-68.262 0-123.6-55.338-123.6-123.6z" fill="#ffffff" stroke="transparent" data-fill-palette-color="tertiary"></path></g></svg></g><defs></defs></svg><rect width="395.52" height="247.2" fill="none" stroke="none" visibility="hidden"></rect></g></svg></g></svg>